Coordinates
version=1
nRows=9
nColumns=24
inDegrees=yes

Units are S.I. units (second, meters, Newtons, ...)
Angles are in degrees.

endheader
time	pelvis_tilt	pelvis_list	pelvis_rotation	pelvis_tx	pelvis_ty	pelvis_tz	hip_flexion_r	hip_adduction_r	hip_rotation_r	knee_angle_r	ankle_angle_r	subtalar_angle_r	mtp_angle_r	hip_flexion_l	hip_adduction_l	hip_rotation_l	knee_angle_l	ankle_angle_l	subtalar_angle_l	mtp_angle_l	lumbar_extension	lumbar_bending	lumbar_rotation
      6.14000000	      5.89877722	      4.50713108	     12.02329113	      0.77562204	      0.88490191	      0.13619390	     18.99252816	     -4.59962554	     -7.14944179	    -12.26606748	     12.77898888	      2.01704851	      0.00000000	    -32.86932668	      2.25834139	     10.16904012	     -6.65336944	      6.19224318	    -11.05875138	      0.00000000	    -22.99319331	      0.32051052	     -7.96516055
      6.15000000	      5.89676848	      3.89407371	     11.50663304	      0.79282945	      0.88356666	      0.13814827	     20.04045681	     -3.76035813	     -7.17410334	    -15.48796082	     12.90762225	      2.69949479	      0.00000000	    -31.88572740	      1.59657843	      7.07035048	     -9.68697197	      6.28119286	     -7.25024377	      0.00000000	    -22.49091024	      0.84557941	     -7.87847834
      6.16000000	      5.92804373	      3.21215984	     10.97913924	      0.81004680	      0.88247543	      0.14013550	     20.95464157	     -2.83750015	     -7.21646285	    -18.60449109	     13.42142366	      3.64061968	      0.00000000	    -30.77415277	      0.80195352	      4.58700107	    -12.90445112	      5.32432933	     -4.62683760	      0.00000000	    -22.02447225	      1.46695494	     -7.85528509
      6.17000000	      6.26130564	      2.37406294	     10.49787422	      0.82722326	      0.88196197	      0.14211344	     21.31726670	     -1.68285734	     -7.32008456	    -21.34333854	     14.15079763	      4.37503584	      0.00000000	    -29.79345421	     -0.28523237	      2.46941040	    -16.30463278	      3.67640888	     -2.61924908	      0.00000000	    -21.90431197	      2.35280716	     -7.83940742
      6.18000000	      6.62239292	      1.51647691	     10.12226001	      0.84419296	      0.88173969	      0.14400404	     21.39165509	     -0.50925647	     -7.49160162	    -23.68174153	     15.12020280	      4.88917409	      0.00000000	    -28.63308678	     -1.45189572	      0.98867536	    -19.93063719	      1.34862441	     -1.36959537	      0.00000000	    -21.85201340	      3.28786562	     -7.89536426
      6.19000000	      6.96943011	      0.68206479	      9.91753867	      0.86080750	      0.88176638	      0.14574491	     21.18994405	      0.60990252	     -7.80118621	    -25.56343714	     16.27526253	      5.22150713	      0.00000000	    -27.20654430	     -2.66276622	      0.09620981	    -23.81551178	     -1.30134799	     -0.54267700	      0.00000000	    -21.83829401	      4.22569933	     -8.05537687
      6.20000000	      7.20139825	     -0.09475782	      9.92315850	      0.87693687	      0.88191507	      0.14729215	     20.82346660	      1.61491926	     -8.25029562	    -26.98105045	     17.55967786	      5.43109051	      0.00000000	    -25.38457376	     -3.85692556	     -0.21105667	    -27.96195432	     -3.91060222	      0.07182964	      0.00000000	    -21.75605328	      5.11381957	     -8.31486551
      6.21000000	      7.26595131	     -0.81455768	     10.16323932	      0.89249322	      0.88213205	      0.14858444	     20.36762997	      2.49259946	     -8.85106847	    -27.93863036	     18.87531870	      5.57139400	      0.00000000	    -23.11478669	     -4.99696419	      0.04056280	    -32.32279295	     -6.13053249	      0.63138533	      0.00000000	    -21.54358376	      5.95774008	     -8.64496571
      6.22000000	      7.14620571	     -1.48590486	     10.61116579	      0.90743623	      0.88241012	      0.14961273	     19.88673206	      3.25143035	     -9.59647561	    -28.48524001	     20.16175863	      5.73643358	      0.00000000	    -20.39892076	     -6.04184867	      0.73460341	    -36.82834520	     -7.69169413	      1.23147904	      0.00000000	    -21.17849463	      6.75752271	     -9.02116441
